<?xml version="1.0" encoding="UTF-8" standalone="no"?>
<svg
   viewBox="0 0 512 512"
   version="1.1"
   id="svg1"
   sodipodi:docname="briefcase-solid.svg"
   inkscape:version="1.3 (0e150ed6c4, 2023-07-21)"
   xmlns:inkscape="http://www.inkscape.org/namespaces/inkscape"
   xmlns:sodipodi="http://sodipodi.sourceforge.net/DTD/sodipodi-0.dtd"
   xmlns="http://www.w3.org/2000/svg"
   xmlns:svg="http://www.w3.org/2000/svg">
  <defs
     id="defs1" />
  <sodipodi:namedview
     id="namedview1"
     pagecolor="#ffffff"
     bordercolor="#111111"
     borderopacity="1"
     inkscape:showpageshadow="0"
     inkscape:pageopacity="0"
     inkscape:pagecheckerboard="1"
     inkscape:deskcolor="#d1d1d1"
     inkscape:zoom="1.6035156"
     inkscape:cx="256"
     inkscape:cy="156.21924"
     inkscape:window-width="1920"
     inkscape:window-height="1017"
     inkscape:window-x="-8"
     inkscape:window-y="-8"
     inkscape:window-maximized="1"
     inkscape:current-layer="svg1" />
  <!--! Font Awesome Pro 6.4.2 by @fontawesome - https://fontawesome.com License - https://fontawesome.com/license (Commercial License) Copyright 2023 Fonticons, Inc. -->
  <path
     d="M184 48H328c4.4 0 8 3.6 8 8V96H176V56c0-4.4 3.6-8 8-8zm-56 8V96H64C28.7 96 0 124.7 0 160v96H192 320 512V160c0-35.3-28.7-64-64-64H384V56c0-30.9-25.1-56-56-56H184c-30.9 0-56 25.1-56 56zM512 288H320v32c0 17.7-14.3 32-32 32H224c-17.7 0-32-14.3-32-32V288H0V416c0 35.3 28.7 64 64 64H448c35.3 0 64-28.7 64-64V288z"
     id="path1" />
  <path
     style="fill:#4d4d4d;stroke-width:0.62363"
     d="M 56.43849,479.20718 C 50.323331,478.48706 41.724436,475.87417 35.927336,472.97461 22.757404,466.38734 12.855374,456.25912 6.5296514,442.90538 3.025337,435.50771 1.3515429,429.13067 0.6032992,420.32643 0.28264776,416.55347 0.01572981,385.33301 0.01014826,350.94762 L 0,288.42875 h 95.727162 95.727158 l 0.0193,15.74665 c 0.0106,8.66065 0.28383,17.78363 0.60719,20.27327 1.5564,11.98281 10.68125,22.75968 22.31266,26.35225 3.81036,1.1769 5.86321,1.23806 41.55907,1.23806 40.81611,0 40.27545,0.0408 47.42491,-3.57968 4.03498,-2.04331 10.29569,-8.08807 12.42055,-11.99213 4.12722,-7.58307 4.28652,-8.59403 4.59675,-29.17363 l 0.28438,-18.86479 H 416.33955 512 l -0.0102,62.51887 c -0.006,34.38539 -0.2725,65.60585 -0.59315,69.37881 -0.74824,8.80424 -2.42204,15.18128 -5.92635,22.57895 -9.60016,20.26613 -28.49996,33.79956 -50.76505,36.35095 -6.61006,0.75745 -391.821005,0.70991 -398.26681,-0.0491 z"
     id="path2" />
  <path
     style="fill:#4d4d4d;stroke-width:0.62363"
     d="M 0.00987075,209.38368 C 0.0152997,183.7447 0.28825718,159.52779 0.61644289,155.56833 2.7845328,129.41097 19.324939,108.08306 43.965895,99.671657 53.088094,96.557718 56.182439,96.350792 93.626147,96.350792 H 128.46772 V 73.331353 c 0,-24.676819 0.31957,-28.210615 3.28697,-36.347654 4.88393,-13.392452 16.40027,-25.80951 29.40709,-31.7070791 2.19562,-0.9955457 6.33159,-2.4497372 9.19102,-3.2315366 l 5.19897,-1.42145358 H 256 336.44823 l 5.19897,1.42145358 c 21.28789,5.8203368 36.82364,22.3795267 40.99035,43.6906527 0.67841,3.469776 0.89473,10.141677 0.89473,27.595617 v 23.019439 h 34.84157 c 37.44371,0 40.53805,0.206926 49.66025,3.320865 24.64096,8.411403 41.18137,29.739313 43.34945,55.896673 0.3282,3.95946 0.60115,28.17637 0.60658,53.81535 L 512,256 H 256 0 Z M 336.13409,74.991474 c -0.002,-20.084479 -0.075,-21.478481 -1.21969,-23.355838 -2.55617,-4.192272 2.75393,-3.927962 -78.9144,-3.927962 -81.66833,0 -76.35823,-0.26431 -78.9144,3.927962 -1.1447,1.877357 -1.2175,3.271359 -1.21969,23.355838 l -0.002,21.359318 H 256 336.13642 Z"
     id="path3" />
</svg>
