<?xml version="1.0" encoding="UTF-8" standalone="no"?>
<svg
   height="16"
   width="18"
   viewBox="0 0 576 512"
   version="1.1"
   id="svg1"
   sodipodi:docname="edit-solid.svg"
   inkscape:version="1.3 (0e150ed6c4, 2023-07-21)"
   xmlns:inkscape="http://www.inkscape.org/namespaces/inkscape"
   xmlns:sodipodi="http://sodipodi.sourceforge.net/DTD/sodipodi-0.dtd"
   xmlns="http://www.w3.org/2000/svg"
   xmlns:svg="http://www.w3.org/2000/svg">
  <defs
     id="defs1" />
  <sodipodi:namedview
     id="namedview1"
     pagecolor="#ffffff"
     bordercolor="#111111"
     borderopacity="1"
     inkscape:showpageshadow="0"
     inkscape:pageopacity="0"
     inkscape:pagecheckerboard="1"
     inkscape:deskcolor="#d1d1d1"
     inkscape:zoom="51.3125"
     inkscape:cx="8.9939099"
     inkscape:cy="8"
     inkscape:window-width="1920"
     inkscape:window-height="1017"
     inkscape:window-x="-8"
     inkscape:window-y="-8"
     inkscape:window-maximized="1"
     inkscape:current-layer="svg1" />
  <!--!Font Awesome Free 6.5.1 by @fontawesome - https://fontawesome.com License - https://fontawesome.com/license/free Copyright 2023 Fonticons, Inc.-->
  <path
     opacity="1"
     fill="#1E3050"
     d="M402.6 83.2l90.2 90.2c3.8 3.8 3.8 10 0 13.8L274.4 405.6l-92.8 10.3c-12.4 1.4-22.9-9.1-21.5-21.5l10.3-92.8L388.8 83.2c3.8-3.8 10-3.8 13.8 0zm162-22.9l-48.8-48.8c-15.2-15.2-39.9-15.2-55.2 0l-35.4 35.4c-3.8 3.8-3.8 10 0 13.8l90.2 90.2c3.8 3.8 10 3.8 13.8 0l35.4-35.4c15.2-15.3 15.2-40 0-55.2zM384 346.2V448H64V128h229.8c3.2 0 6.2-1.3 8.5-3.5l40-40c7.6-7.6 2.2-20.5-8.5-20.5H48C21.5 64 0 85.5 0 112v352c0 26.5 21.5 48 48 48h352c26.5 0 48-21.5 48-48V306.2c0-10.7-12.9-16-20.5-8.5l-40 40c-2.2 2.3-3.5 5.3-3.5 8.5z"
     id="path1" />
  <path
     style="fill:#000000;stroke-width:0.0194884"
     d="M 1.252272,15.970225 C 1.1107675,15.946228 0.92983606,15.880392 0.78429511,15.799941 0.44953567,15.614894 0.20660862,15.317138 0.07302661,14.928136 L 0.01948843,14.772229 V 9.0133983 c 0,-5.4954769 0.0016115,-5.7646236 0.03523832,-5.8855055 0.14697909,-0.5283607 0.56577556,-0.9389759 1.09333585,-1.0719775 0.1518419,-0.03828 0.2231783,-0.038863 4.75878,-0.038863 3.1996975,0 4.6213664,0.00631 4.6594894,0.020684 0.157101,0.059229 0.258264,0.2569836 0.217466,0.4251035 -0.02011,0.082849 -0.07646,0.1450739 -0.696381,0.7688946 -0.3709785,0.3733126 -0.7070432,0.6956025 -0.7468111,0.7161997 -0.070565,0.036548 -0.1597983,0.03745 -3.7076736,0.03745 H 1.9975639 v 5.0085262 5.0085257 h 5.0085262 5.0085259 v -1.62791 c 0,-1.424612 0.0038,-1.636958 0.03014,-1.700365 0.03563,-0.08566 1.255324,-1.3212922 1.391458,-1.4096461 0.157439,-0.1021813 0.363679,-0.062366 0.482266,0.093104 l 0.05472,0.071742 0.0051,2.6322441 c 0.005,2.576405 0.0043,2.635556 -0.03391,2.788365 -0.130599,0.522952 -0.529768,0.934177 -1.062526,1.09462 -0.111514,0.03358 -0.381405,0.03535 -5.8270398,0.03826 -3.1405603,0.0017 -5.7517029,-0.004 -5.8025392,-0.01263 z"
     id="path2"
     transform="scale(32)" />
  <path
     style="fill:#000000;stroke-width:0.0194884"
     d="M 5.4338451,12.960984 C 5.1828077,12.88249 5.018898,12.662882 5.0184139,12.404385 c -1.304e-4,-0.06967 0.070597,-0.76687 0.1571709,-1.54933 L 5.3329929,9.4323995 8.7761189,5.9890806 c 3.0787531,-3.078926 3.4508601,-3.444713 3.5162071,-3.4564928 0.183594,-0.033095 0.09474,-0.1108036 1.66841,1.4590439 1.078347,1.0757246 1.45897,1.467169 1.487484,1.5297761 0.02853,0.062644 0.03501,0.1049591 0.02535,0.1656517 -0.01231,0.077371 -0.188505,0.2569933 -3.465559,3.5329446 l -3.4525918,3.4514289 -1.4616321,0.15921 c -0.8038977,0.08757 -1.4879416,0.15844 -1.5200975,0.157499 -0.032156,-9.42e-4 -0.095086,-0.01316 -0.1398455,-0.02716 z"
     id="path3"
     transform="scale(32)" />
  <path
     style="fill:#000000;stroke-width:0.0194884"
     d="M 16.175396,4.7473606 C 16.14324,4.727064 15.466574,4.0584 14.671694,3.2614408 13.303024,1.8891916 13.225755,1.8080338 13.213214,1.729559 c -0.01017,-0.063608 -0.0039,-0.1021439 0.02692,-0.1658248 0.05473,-0.113051 1.195013,-1.24816051 1.360487,-1.35431082 0.06639,-0.0425913 0.197941,-0.10275031 0.292326,-0.1336868 0.143708,-0.0471026 0.203297,-0.05615516 0.366495,-0.0556762 0.214729,6.3019e-4 0.341734,0.03074526 0.554329,0.1314412 0.115874,0.0548842 0.213177,0.14587569 1.045459,0.97765002 0.826505,0.8260008 0.924618,0.930689 0.987378,1.0535524 0.09292,0.1819007 0.135459,0.3547319 0.136716,0.5554202 0.0013,0.2102463 -0.02836,0.3380982 -0.126655,0.545676 -0.07649,0.1615351 -0.09424,0.1815519 -0.714206,0.8054948 -0.349669,0.3519137 -0.659443,0.6522791 -0.688387,0.6674787 -0.07448,0.039114 -0.208995,0.034571 -0.278678,-0.00941 z"
     id="path4"
     transform="scale(32)" />
</svg>
