<?xml version="1.0" encoding="UTF-8" standalone="no"?>
<svg
   viewBox="0 0 512 512"
   version="1.1"
   id="svg1"
   sodipodi:docname="edit.svg"
   inkscape:version="1.3 (0e150ed6c4, 2023-07-21)"
   xmlns:inkscape="http://www.inkscape.org/namespaces/inkscape"
   xmlns:sodipodi="http://sodipodi.sourceforge.net/DTD/sodipodi-0.dtd"
   xmlns="http://www.w3.org/2000/svg"
   xmlns:svg="http://www.w3.org/2000/svg">
  <defs
     id="defs1" />
  <sodipodi:namedview
     id="namedview1"
     pagecolor="#ffffff"
     bordercolor="#111111"
     borderopacity="1"
     inkscape:showpageshadow="0"
     inkscape:pageopacity="0"
     inkscape:pagecheckerboard="1"
     inkscape:deskcolor="#d1d1d1"
     inkscape:zoom="1.6035156"
     inkscape:cx="72.029233"
     inkscape:cy="286.55786"
     inkscape:window-width="1920"
     inkscape:window-height="1017"
     inkscape:window-x="-8"
     inkscape:window-y="-8"
     inkscape:window-maximized="1"
     inkscape:current-layer="svg1" />
  <!--! Font Awesome Pro 6.4.2 by @fontawesome - https://fontawesome.com License - https://fontawesome.com/license (Commercial License) Copyright 2023 Fonticons, Inc. -->
  <path
     d="M441 58.9L453.1 71c9.4 9.4 9.4 24.6 0 33.9L424 134.1 377.9 88 407 58.9c9.4-9.4 24.6-9.4 33.9 0zM209.8 256.2L344 121.9 390.1 168 255.8 302.2c-2.9 2.9-6.5 5-10.4 6.1l-58.5 16.7 16.7-58.5c1.1-3.9 3.2-7.5 6.1-10.4zM373.1 25L175.8 222.2c-8.7 8.7-15 19.4-18.3 31.1l-28.6 100c-2.4 8.4-.1 17.4 6.1 23.6s15.2 8.5 23.6 6.1l100-28.6c11.8-3.4 22.5-9.7 31.1-18.3L487 138.9c28.1-28.1 28.1-73.7 0-101.8L474.9 25C446.8-3.1 401.2-3.1 373.1 25zM88 64C39.4 64 0 103.4 0 152V424c0 48.6 39.4 88 88 88H360c48.6 0 88-39.4 88-88V312c0-13.3-10.7-24-24-24s-24 10.7-24 24V424c0 22.1-17.9 40-40 40H88c-22.1 0-40-17.9-40-40V152c0-22.1 17.9-40 40-40H200c13.3 0 24-10.7 24-24s-10.7-24-24-24H88z"
     id="path1" />
  <path
     style="fill:#f9f9f9;stroke-width:0.62363"
     d="m 147.17661,383.02104 c -10.65367,-2.41622 -17.96169,-10.94098 -18.5832,-21.67719 -0.27088,-4.67928 -0.0411,-5.57024 15.12254,-58.63353 16.41749,-57.45104 17.30471,-60.04113 24.02946,-70.15015 2.65309,-3.98828 22.74448,-24.42035 104.70184,-106.47725 C 328.22757,70.234869 376.2514,22.61039 379.16687,20.250751 c 8.80251,-7.124318 19.78395,-12.2778553 31.30866,-14.6929988 6.36195,-1.3332243 18.90496,-1.4905155 25.44164,-0.319042 10.36598,1.8577413 21.1333,6.3910228 29.93414,12.6029478 5.2755,3.723621 22.59143,20.742525 26.89743,26.436052 6.30823,8.34094 10.56069,17.245142 13.15232,27.539545 2.00062,7.946845 2.01057,24.244827 0.0196,32.146435 -2.87414,11.4068 -7.71486,21.15607 -14.74636,29.69933 -1.88274,2.28753 -49.11261,49.77974 -104.95526,105.53824 -79.0211,78.90202 -102.60593,102.10613 -106.37548,104.6583 -10.09526,6.83498 -12.82767,7.77708 -69.81993,24.07306 -29.24943,8.36338 -54.58394,15.35468 -56.29892,15.53623 -1.71499,0.18155 -4.66164,-0.02 -6.54812,-0.44781 z m 70.73747,-66.52258 c 18.4178,-5.27337 31.60708,-9.37335 33.34302,-10.36492 1.82184,-1.04062 27.84186,-26.58137 71.15947,-69.84871 l 68.28745,-68.20823 -23.07114,-23.07849 c -12.68912,-12.69318 -23.35494,-23.0785 -23.7018,-23.0785 -0.34686,0 -31.40181,30.79951 -69.011,68.44336 -46.09601,46.13849 -68.79918,69.28545 -69.66553,71.02734 -0.70685,1.42119 -5.12128,16.01412 -9.80983,32.42875 -4.68856,16.41462 -8.65701,30.19556 -8.81877,30.6243 -0.16176,0.42875 -0.0441,0.77954 0.2615,0.77954 0.30559,0 14.26757,-3.926 31.02663,-8.72444 z M 440.37429,118.33374 c 19.21315,-19.379294 19.54246,-19.886187 19.54865,-30.090135 0.004,-6.115269 -0.13174,-6.834713 -2.04917,-10.883935 -1.719,-3.630192 -3.44439,-5.717531 -10.6017,-12.825745 -9.3123,-9.248419 -12.48081,-11.310461 -19.33941,-12.585953 -2.9558,-0.549687 -4.81554,-0.538866 -7.99247,0.04651 -7.47855,1.377977 -9.25004,2.700453 -26.27393,19.614373 -8.66066,8.604712 -15.74665,15.93639 -15.74665,16.292632 0,0.654973 45.53155,46.490713 46.18218,46.490713 0.19345,0 7.51607,-7.2263 16.2725,-16.05846 z"
     id="path33" />
  <path
     style="fill:#f9f9f9;stroke-width:0.62363"
     d="M 77.01827,510.97747 C 57.074705,508.39855 39.098089,499.22315 24.796768,484.32321 12.428915,471.43767 4.9397081,456.55647 1.377183,437.78806 0.3917181,432.59635 0.31181486,421.37092 0.31181486,288.11693 c 0,-134.45697 0.0727226,-144.46318 1.09111154,-150.13065 C 5.5513597,114.8997 17.661093,95.1167 35.858709,81.697791 45.453345,74.622712 54.803386,70.202977 67.35201,66.811002 l 7.171742,-1.938568 64.931768,-0.18517 c 64.84304,-0.184917 64.93658,-0.183364 68.46351,1.136227 15.72404,5.883117 20.76213,25.506936 9.66559,37.648319 -1.70074,1.86088 -4.35444,4.12311 -5.89713,5.02719 -5.80984,3.40479 -6.12116,3.41995 -70.46024,3.43171 -64.804371,0.0118 -62.343273,-0.11695 -70.445277,3.68624 -10.659675,5.00378 -19.018368,15.16201 -21.99192,26.72652 -1.011878,3.93532 -1.082379,13.43037 -1.082379,145.77346 0,133.1842 0.06498,141.80389 1.097711,145.61754 3.082524,11.38304 10.986304,21.19258 21.041144,26.11458 9.714947,4.75562 -1.949473,4.42038 154.225241,4.43245 127.04374,0.01 140.6146,-0.084 144.6821,-1.0003 14.25943,-3.21221 25.08315,-13.13855 29.83786,-27.36403 l 1.45908,-4.3654 0.31564,-62.67479 0.31565,-62.67479 1.67136,-3.56596 c 2.33385,-4.97942 6.71312,-9.43992 11.65808,-11.87431 3.7586,-1.85035 4.60827,-2.02136 10.04355,-2.02136 5.11223,0 6.4248,0.22844 9.44241,1.64337 6.67174,3.12831 11.54543,8.96064 13.33942,15.96326 0.8731,3.40806 0.96021,10.95749 0.76606,66.39582 -0.21654,61.83335 -0.23481,62.61989 -1.59333,68.59912 -6.22046,27.37795 -22.90861,48.99763 -47.19844,61.14609 -5.79318,2.89744 -12.29251,5.21115 -20.26797,7.21523 l -6.54811,1.64542 -145.30573,0.0966 c -83.72779,0.0556 -147.1557,-0.14268 -149.67113,-0.46795 z"
     id="path34" />
</svg>
