<?xml version="1.0" encoding="UTF-8" standalone="no"?>
<svg
   height="16"
   width="16"
   viewBox="0 0 512 512"
   version="1.1"
   id="svg1"
   sodipodi:docname="heart-solid.svg"
   inkscape:version="1.3 (0e150ed6c4, 2023-07-21)"
   xmlns:inkscape="http://www.inkscape.org/namespaces/inkscape"
   xmlns:sodipodi="http://sodipodi.sourceforge.net/DTD/sodipodi-0.dtd"
   xmlns="http://www.w3.org/2000/svg"
   xmlns:svg="http://www.w3.org/2000/svg">
  <defs
     id="defs1" />
  <sodipodi:namedview
     id="namedview1"
     pagecolor="#ffffff"
     bordercolor="#111111"
     borderopacity="1"
     inkscape:showpageshadow="0"
     inkscape:pageopacity="0"
     inkscape:pagecheckerboard="1"
     inkscape:deskcolor="#d1d1d1"
     inkscape:zoom="51.3125"
     inkscape:cx="8"
     inkscape:cy="8"
     inkscape:window-width="1920"
     inkscape:window-height="1017"
     inkscape:window-x="-8"
     inkscape:window-y="-8"
     inkscape:window-maximized="1"
     inkscape:current-layer="svg1" />
  <!--!Font Awesome Free 6.5.1 by @fontawesome - https://fontawesome.com License - https://fontawesome.com/license/free Copyright 2023 Fonticons, Inc.-->
  <path
     opacity="1"
     fill="#1E3050"
     d="M47.6 300.4L228.3 469.1c7.5 7 17.4 10.9 27.7 10.9s20.2-3.9 27.7-10.9L464.4 300.4c30.4-28.3 47.6-68 47.6-109.5v-5.8c0-69.9-50.5-129.5-119.4-141C347 36.5 300.6 51.4 268 84L256 96 244 84c-32.6-32.6-79-47.5-124.6-39.9C50.5 55.6 0 115.2 0 185.1v5.8c0 41.5 17.2 81.2 47.6 109.5z"
     id="path1" />
  <path
     style="fill:#666666;stroke-width:0.0194884"
     d="M 7.8112255,14.976377 C 7.6636414,14.953342 7.4378268,14.863973 7.3070751,14.776855 7.1986487,14.704611 1.5332481,9.4311996 1.3084668,9.1932903 0.60191573,8.4454735 0.15768343,7.496785 0.03789776,6.4799026 0.00962722,6.2399088 0.00972599,5.5066009 0.03805921,5.2813642 0.14571018,4.4255856 0.47736158,3.6389153 1.0075595,2.9817296 1.6052506,2.2408855 2.4622034,1.6943735 3.389463,1.4626972 3.8038464,1.3591633 3.9337119,1.3451116 4.4725944,1.3455009 c 0.4471788,3.23e-4 0.5353148,0.00571 0.7503045,0.045825 0.9729933,0.1815692 1.7022061,0.5703237 2.4709268,1.3172888 L 8,3.0061238 8.2978352,2.7163394 C 8.4616448,2.5569579 8.6765048,2.3637734 8.7753017,2.2870406 9.3763245,1.8202438 10.015227,1.5344363 10.777101,1.3915531 c 0.215507,-0.040417 0.30205,-0.045728 0.750305,-0.046052 0.406768,-2.938e-4 0.545134,0.00663 0.701583,0.035096 1.000544,0.182064 1.830868,0.6152341 2.495121,1.3016744 0.358128,0.3700898 0.590738,0.7036718 0.820344,1.1764375 0.219037,0.4510069 0.352372,0.9053433 0.417508,1.4226553 0.03309,0.2627728 0.02725,0.9876443 -0.01019,1.2659779 -0.133645,0.993491 -0.541084,1.8647318 -1.210065,2.5875264 -0.154723,0.1671692 -5.5605408,5.2288204 -5.9235079,5.5463824 -0.2647683,0.231647 -0.6640084,0.348658 -1.0069736,0.295126 z"
     id="path2"
     transform="scale(32)" />
  <path
     style="fill:#4d4d4d;stroke-width:0.0194884"
     d="M 7.7174178,14.946241 C 7.6584653,14.930813 7.5400731,14.883376 7.454324,14.840825 7.2806934,14.754665 7.3989683,14.859916 5.5834348,13.175952 2.8255981,10.617974 1.3523635,9.2340256 1.1988165,9.0570674 0.60872275,8.3770025 0.22717081,7.5699371 0.07951825,6.6895086 -0.00140561,6.2069724 0.01074465,5.4041475 0.10608948,4.933822 0.46910291,3.1431164 1.8444899,1.7782825 3.6556821,1.4114646 3.8297086,1.3762193 3.9562635,1.366708 4.3506748,1.3592318 c 0.5282828,-0.010014 0.7322535,0.00603 1.0764934,0.084682 0.8743714,0.1997724 1.5456679,0.582425 2.28724,1.3037732 0.148861,0.1448014 0.2777508,0.2632752 0.2864216,0.2632752 0.00867,0 0.1304236,-0.1122729 0.2705616,-0.2494955 C 8.6082,2.431665 8.790203,2.2789923 9.0696575,2.0918435 9.5021009,1.8022391 9.9494665,1.6045721 10.473761,1.4714453 c 0.383324,-0.097332 0.559614,-0.1168897 1.053645,-0.1168897 0.491673,0 0.668501,0.01952 1.052375,0.1161709 0.615549,0.1549818 1.125242,0.3952552 1.627284,0.7671155 0.24453,0.1811225 0.693871,0.6335613 0.887559,0.8936787 0.490421,0.6586207 0.805524,1.4967403 0.868815,2.3109027 0.02438,0.3136762 0.0082,0.8788609 -0.03363,1.1738982 C 15.79991,7.5327353 15.373855,8.440105 14.774005,9.0778422 14.510526,9.3579633 9.3068441,14.238894 8.8188823,14.663607 8.5249448,14.919444 8.0655037,15.037337 7.7174178,14.946241 Z"
     id="path3"
     transform="scale(32)" />
</svg>
