<?xml version="1.0" encoding="UTF-8" standalone="no"?>
<svg
   viewBox="0 0 576 512"
   version="1.1"
   id="svg1"
   sodipodi:docname="house-solid.svg"
   inkscape:version="1.3 (0e150ed6c4, 2023-07-21)"
   xmlns:inkscape="http://www.inkscape.org/namespaces/inkscape"
   xmlns:sodipodi="http://sodipodi.sourceforge.net/DTD/sodipodi-0.dtd"
   xmlns="http://www.w3.org/2000/svg"
   xmlns:svg="http://www.w3.org/2000/svg">
  <defs
     id="defs1" />
  <sodipodi:namedview
     id="namedview1"
     pagecolor="#ffffff"
     bordercolor="#111111"
     borderopacity="1"
     inkscape:showpageshadow="0"
     inkscape:pageopacity="0"
     inkscape:pagecheckerboard="1"
     inkscape:deskcolor="#d1d1d1"
     inkscape:zoom="0.80175781"
     inkscape:cx="100.40438"
     inkscape:cy="271.27893"
     inkscape:window-width="1920"
     inkscape:window-height="1017"
     inkscape:window-x="-8"
     inkscape:window-y="-8"
     inkscape:window-maximized="1"
     inkscape:current-layer="svg1" />
  <!--! Font Awesome Pro 6.4.2 by @fontawesome - https://fontawesome.com License - https://fontawesome.com/license (Commercial License) Copyright 2023 Fonticons, Inc. -->
  <path
     d="M575.8 255.5c0 18-15 32.1-32 32.1h-32l.7 160.2c0 2.7-.2 5.4-.5 8.1V472c0 22.1-17.9 40-40 40H456c-1.1 0-2.2 0-3.3-.1c-1.4 .1-2.8 .1-4.2 .1H416 392c-22.1 0-40-17.9-40-40V448 384c0-17.7-14.3-32-32-32H256c-17.7 0-32 14.3-32 32v64 24c0 22.1-17.9 40-40 40H160 128.1c-1.5 0-3-.1-4.5-.2c-1.2 .1-2.4 .2-3.6 .2H104c-22.1 0-40-17.9-40-40V360c0-.9 0-1.9 .1-2.8V287.6H32c-18 0-32-14-32-32.1c0-9 3-17 10-24L266.4 8c7-7 15-8 22-8s15 2 21 7L564.8 231.5c8 7 12 15 11 24z"
     id="path1" />
  <path
     style="fill:#4d4d4d;stroke-width:0.62363"
     d="M 95.496955,510.73863 C 83.939251,508.19747 73.610165,499.9119 68.304174,488.9257 64.044558,480.10606 64.233861,485.12253 64.233861,381.06405 V 287.18149 H 46.08271 c -14.534829,0 -18.914576,-0.19683 -21.982948,-0.98795 C 13.164144,283.37401 4.7790888,275.06728 1.5387383,263.84325 0.71936568,261.00509 0.54148172,258.62133 0.77087063,253.55336 1.1299848,245.61933 2.5399359,241.68009 7.1717418,235.67007 11.526235,230.01989 269.35099,5.3832338 273.99956,3.1892621 c 9.50161,-4.4844412 24.05575,-3.43749658 32.51445,2.33891 3.73364,2.5496893 257.74639,225.6574479 261.22526,229.4427579 7.09512,7.72008 9.25051,15.97756 6.97396,26.71782 -2.5645,12.09873 -12.69099,22.33124 -24.5466,24.80358 -1.96243,0.40923 -10.48803,0.68916 -20.98969,0.68916 h -17.68493 l 0.33952,90.58221 c 0.24139,64.40309 0.13915,92.38457 -0.35376,96.81852 -1.20158,10.80874 -4.5945,18.18807 -11.63855,25.31292 -4.5643,4.61666 -9.02994,7.39977 -15.59673,9.72033 l -4.98305,1.7609 -45.316,0.17529 c -51.07155,0.19755 -50.51286,0.2379 -59.7445,-4.31406 -10.00983,-4.93567 -17.74864,-14.64325 -20.61835,-25.86373 -1.17112,-4.57903 -1.2298,-7.07458 -1.2298,-52.30184 0,-31.18144 -0.2304,-48.76432 -0.67084,-51.19379 -2.08957,-11.52623 -11.10614,-21.45194 -22.71527,-25.00566 -3.452,-1.05671 -6.61548,-1.14542 -40.84775,-1.14542 -36.5717,0 -37.1692,0.0199 -41.49728,1.38163 -10.80929,3.40091 -18.94356,11.86278 -21.8306,22.70979 -0.73399,2.75771 -0.89632,11.70804 -0.92034,50.74415 -0.0309,50.30185 -0.1587,52.8226 -3.04438,60.06534 -4.18969,10.51575 -13.11083,18.92407 -24.48392,23.0765 l -4.57427,1.67012 -46.1486,0.11862 c -37.59136,0.0966 -46.885119,-0.0433 -50.120585,-0.75468 z"
     id="path2" />
</svg>
