<?xml version="1.0" encoding="UTF-8" standalone="no"?>
<svg
   height="16"
   width="14"
   viewBox="0 0 448 512"
   version="1.1"
   id="svg1"
   sodipodi:docname="plus-solid.svg"
   inkscape:version="1.3.2 (091e20e, 2023-11-25, custom)"
   xmlns:inkscape="http://www.inkscape.org/namespaces/inkscape"
   xmlns:sodipodi="http://sodipodi.sourceforge.net/DTD/sodipodi-0.dtd"
   xmlns="http://www.w3.org/2000/svg"
   xmlns:svg="http://www.w3.org/2000/svg">
  <defs
     id="defs1" />
  <sodipodi:namedview
     id="namedview1"
     pagecolor="#ffffff"
     bordercolor="#000000"
     borderopacity="0.25"
     inkscape:showpageshadow="2"
     inkscape:pageopacity="0.0"
     inkscape:pagecheckerboard="0"
     inkscape:deskcolor="#d1d1d1"
     inkscape:zoom="48.5625"
     inkscape:cx="6.990991"
     inkscape:cy="8"
     inkscape:window-width="1920"
     inkscape:window-height="991"
     inkscape:window-x="-9"
     inkscape:window-y="-9"
     inkscape:window-maximized="1"
     inkscape:current-layer="svg1" />
  <!--!Font Awesome Free 6.5.0 by @fontawesome - https://fontawesome.com License - https://fontawesome.com/license/free Copyright 2023 Fonticons, Inc.-->
  <path
     d="M256 80c0-17.7-14.3-32-32-32s-32 14.3-32 32V224H48c-17.7 0-32 14.3-32 32s14.3 32 32 32H192V432c0 17.7 14.3 32 32 32s32-14.3 32-32V288H400c17.7 0 32-14.3 32-32s-14.3-32-32-32H256V80z"
     id="path1" />
  <path
     style="fill:#4d4d4d;stroke-width:0.020592"
     d="m 6.7460413,14.453899 c -0.3684298,-0.09908 -0.6612046,-0.428241 -0.7219515,-0.811685 -0.013596,-0.08582 -0.02126,-0.944798 -0.02136,-2.393823 L 6.002574,8.988417 3.6911197,8.9872299 C 1.1138963,8.9859064 1.2369462,8.9924419 0.98963227,8.8437451 0.660368,8.6457759 0.46267042,8.2259597 0.52491828,7.8569126 0.5909839,7.4652312 0.86773484,7.1532899 1.240989,7.0497897 1.3714262,7.0136206 1.502064,7.011583 3.6906741,7.011583 H 6.002574 l 1.555e-4,-2.2599742 c 9.98e-5,-1.4490246 0.00776,-2.3080032 0.02136,-2.3938224 0.06151,-0.3882601 0.3552136,-0.714876 0.7308129,-0.8127072 0.5804132,-0.1511785 1.1553772,0.2513065 1.2250843,0.8575809 0.011347,0.09869 0.019767,1.1121565 0.019857,2.3901327 L 8,7.011583 h 2.294997 c 1.595929,0 2.328236,0.00693 2.404118,0.022756 0.503336,0.1049644 0.847029,0.5937677 0.776719,1.1046573 -0.05482,0.3983364 -0.379425,0.7438145 -0.776719,0.8266651 -0.07588,0.015824 -0.808189,0.022756 -2.404118,0.022756 H 8 l -1.563e-4,2.2187896 c -9e-5,1.277976 -0.00851,2.291443 -0.019857,2.390133 -0.047763,0.415413 -0.337537,0.754754 -0.7323156,0.857581 -0.1495175,0.03894 -0.354564,0.03853 -0.5016301,-0.001 z"
     id="path2"
     transform="scale(32)" />
</svg>
