<?xml version="1.0" encoding="UTF-8" standalone="no"?>
<svg
   height="16"
   width="16"
   viewBox="0 0 512 512"
   version="1.1"
   id="svg1"
   sodipodi:docname="up-right-from-square-solid.svg"
   inkscape:version="1.3 (0e150ed6c4, 2023-07-21)"
   xmlns:inkscape="http://www.inkscape.org/namespaces/inkscape"
   xmlns:sodipodi="http://sodipodi.sourceforge.net/DTD/sodipodi-0.dtd"
   xmlns="http://www.w3.org/2000/svg"
   xmlns:svg="http://www.w3.org/2000/svg">
  <defs
     id="defs1" />
  <sodipodi:namedview
     id="namedview1"
     pagecolor="#ffffff"
     bordercolor="#111111"
     borderopacity="1"
     inkscape:showpageshadow="0"
     inkscape:pageopacity="0"
     inkscape:pagecheckerboard="1"
     inkscape:deskcolor="#d1d1d1"
     inkscape:zoom="51.3125"
     inkscape:cx="8"
     inkscape:cy="8"
     inkscape:window-width="1920"
     inkscape:window-height="1017"
     inkscape:window-x="-8"
     inkscape:window-y="-8"
     inkscape:window-maximized="1"
     inkscape:current-layer="svg1" />
  <!--!Font Awesome Free 6.5.1 by @fontawesome - https://fontawesome.com License - https://fontawesome.com/license/free Copyright 2023 Fonticons, Inc.-->
  <path
     opacity="1"
     fill="#1E3050"
     d="M352 0c-12.9 0-24.6 7.8-29.6 19.8s-2.2 25.7 6.9 34.9L370.7 96 201.4 265.4c-12.5 12.5-12.5 32.8 0 45.3s32.8 12.5 45.3 0L416 141.3l41.4 41.4c9.2 9.2 22.9 11.9 34.9 6.9s19.8-16.6 19.8-29.6V32c0-17.7-14.3-32-32-32H352zM80 32C35.8 32 0 67.8 0 112V432c0 44.2 35.8 80 80 80H400c44.2 0 80-35.8 80-80V320c0-17.7-14.3-32-32-32s-32 14.3-32 32V432c0 8.8-7.2 16-16 16H80c-8.8 0-16-7.2-16-16V112c0-8.8 7.2-16 16-16H192c17.7 0 32-14.3 32-32s-14.3-32-32-32H80z"
     id="path1" />
  <path
     style="fill:#1a1a1a;stroke-width:0.0194884"
     d="M 2.2314251,15.976722 C 1.7469884,15.924902 1.2421663,15.701303 0.86801212,15.37283 0.46243175,15.016767 0.20275348,14.581357 0.06233303,14.021924 L 0.0207536,13.856273 0.01493573,8.5985536 C 0.00991488,4.0611266 0.01302612,3.3149012 0.037646,3.1515377 0.17975209,2.2086025 0.83064366,1.4283325 1.7139843,1.1419918 2.1324167,1.0063542 2.1766533,1.0039483 4.2484775,1.0041524 c 1.9674194,1.937e-4 1.9489565,-7.242e-4 2.1827697,0.1085252 0.145308,0.067895 0.37328,0.2886386 0.4455816,0.431453 0.2958632,0.584405 -0.044884,1.2933861 -0.6853398,1.425965 -0.070679,0.014631 -0.6834409,0.021378 -1.9415205,0.021378 -2.0161709,0 -1.9227196,-0.00527 -2.0772373,0.1171116 -0.041064,0.032523 -0.097275,0.1045132 -0.1249146,0.1599774 l -0.050253,0.1008441 4.28e-4,5.1265023 c 4.108e-4,4.919015 0.00187,5.129658 0.035964,5.204456 0.054329,0.119181 0.1371102,0.205521 0.2453942,0.255944 l 0.098239,0.04575 5.1265025,1.91e-4 5.1265027,1.9e-4 0.103782,-0.05172 c 0.10728,-0.05346 0.203485,-0.164168 0.248308,-0.285743 0.01687,-0.04577 0.02327,-0.546426 0.02436,-1.907622 9.99e-4,-1.257823 0.0083,-1.8784584 0.02286,-1.9488432 0.132578,-0.6404562 0.841559,-0.981203 1.425964,-0.6853398 0.131919,0.066785 0.363892,0.3006628 0.422689,0.4261589 0.113906,0.2431175 0.107015,0.1152004 0.113918,2.1144951 0.0062,1.808388 -0.0012,2.114764 -0.05745,2.358099 -0.238076,1.030238 -1.045586,1.782521 -2.082407,1.939985 -0.158175,0.02402 -0.940182,0.02768 -5.3690619,0.02511 C 4.6324,15.98532 2.2689408,15.98072 2.2314256,15.97672 Z"
     id="path2"
     transform="scale(32)" />
  <path
     style="fill:#1a1a1a;stroke-width:0.0194884"
     d="M 6.696233,9.9377076 C 6.4375846,9.8496136 6.2567164,9.6980946 6.1328945,9.465781 5.976774,9.172869 5.9735001,8.8660091 6.1231132,8.5490077 6.1686903,8.4524387 6.5167212,8.0965595 8.8805724,5.7293675 10.368486,4.2393503 11.585871,3.0118437 11.585871,3.0015754 c 0,-0.010268 -0.318343,-0.3390318 -0.707429,-0.7305855 C 10.309079,1.6980171 10.160863,1.538155 10.11901,1.4518879 9.9218806,1.0455682 9.9911197,0.62708757 10.307886,0.31032164 10.45556,0.16264729 10.582303,0.08939135 10.776324,0.03957027 c 0.17356,-0.04456725 4.262935,-0.04440017 4.452069,1.819e-4 0.35273,0.08314439 0.639412,0.36555102 0.732022,0.72110637 0.04498,0.17270422 0.04498,4.30801476 0,4.48071906 C 15.825304,5.760303 15.276948,6.094103 14.774783,5.9633056 14.511458,5.8947182 14.489969,5.8774223 13.72878,5.1214213 13.3371,4.7324106 13.008306,4.4141291 12.998127,4.4141291 c -0.01018,0 -1.237582,1.2181757 -2.727562,2.7070572 C 8.071786,9.3183439 7.5423002,9.8377964 7.4595235,9.8789613 7.2168634,9.999636 6.9405067,10.020906 6.696233,9.9377076 Z"
     id="path3"
     transform="scale(32)" />
</svg>
