<?xml version="1.0" encoding="UTF-8" standalone="no"?>
<svg
   height="16"
   width="20"
   viewBox="0 0 640 512"
   version="1.1"
   id="svg1"
   sodipodi:docname="user-plus-solid.svg"
   inkscape:version="1.3 (0e150ed6c4, 2023-07-21)"
   xmlns:inkscape="http://www.inkscape.org/namespaces/inkscape"
   xmlns:sodipodi="http://sodipodi.sourceforge.net/DTD/sodipodi-0.dtd"
   xmlns="http://www.w3.org/2000/svg"
   xmlns:svg="http://www.w3.org/2000/svg">
  <defs
     id="defs1" />
  <sodipodi:namedview
     id="namedview1"
     pagecolor="#ffffff"
     bordercolor="#111111"
     borderopacity="1"
     inkscape:showpageshadow="0"
     inkscape:pageopacity="0"
     inkscape:pagecheckerboard="1"
     inkscape:deskcolor="#d1d1d1"
     inkscape:zoom="51.3125"
     inkscape:cx="10.007308"
     inkscape:cy="8"
     inkscape:window-width="1920"
     inkscape:window-height="1017"
     inkscape:window-x="-8"
     inkscape:window-y="-8"
     inkscape:window-maximized="1"
     inkscape:current-layer="svg1" />
  <!--!Font Awesome Free 6.5.1 by @fontawesome - https://fontawesome.com License - https://fontawesome.com/license/free Copyright 2023 Fonticons, Inc.-->
  <path
     opacity="1"
     fill="#1E3050"
     d="M96 128a128 128 0 1 1 256 0A128 128 0 1 1 96 128zM0 482.3C0 383.8 79.8 304 178.3 304h91.4C368.2 304 448 383.8 448 482.3c0 16.4-13.3 29.7-29.7 29.7H29.7C13.3 512 0 498.7 0 482.3zM504 312V248H440c-13.3 0-24-10.7-24-24s10.7-24 24-24h64V136c0-13.3 10.7-24 24-24s24 10.7 24 24v64h64c13.3 0 24 10.7 24 24s-10.7 24-24 24H552v64c0 13.3-10.7 24-24 24s-24-10.7-24-24z"
     id="path1" />
  <path
     style="fill:#333333;stroke-width:0.0194884"
     d="M 0.71786352,15.962531 C 0.3757562,15.879563 0.10030927,15.590863 0.02845396,15.239951 -5.5020901e-4,15.098307 0.01437284,14.657517 0.05921881,14.331233 0.31167452,12.494452 1.4596747,10.900861 3.1181486,10.084993 3.7105397,9.7935722 4.2536629,9.6338658 4.9792935,9.5377195 5.2166246,9.506273 8.1918486,9.4906656 8.6723508,9.5183465 c 0.8595325,0.049516 1.4984392,0.2154167 2.2314252,0.5794185 0.568553,0.282345 1.012263,0.604256 1.471376,1.067481 0.305613,0.30835 0.522381,0.576972 0.738999,0.915779 0.564919,0.883573 0.887723,1.977682 0.86566,2.934063 l -0.0066,0.286442 -0.08278,0.16697 c -0.125668,0.253476 -0.331015,0.421821 -0.599996,0.491882 -0.101943,0.02655 -0.801577,0.02969 -6.2933035,0.02822 -4.8783918,-0.0013 -6.19979024,-0.0068 -6.27925998,-0.02607 z"
     id="path2"
     transform="scale(32)" />
  <path
     style="fill:#333333;stroke-width:0.0194884"
     d="M 6.7527406,7.9777549 C 5.9233629,7.9351942 5.0993245,7.6048828 4.4311258,7.0471478 3.8749685,6.582932 3.4490249,5.9532011 3.2169951,5.2521315 2.798698,3.9882625 3.0304672,2.6277521 3.8461243,1.5590743 3.9717448,1.3944857 4.3187233,1.040895 4.4920828,0.900806 4.9748056,0.51072563 5.6232978,0.20543466 6.2168088,0.08885592 6.9090608,-0.04711775 7.5756767,-0.00541722 8.2512123,0.21611917 9.6879719,0.68729282 10.741341,1.9513968 10.95124,3.4563089 11.006319,3.851207 10.984418,4.464297 10.902058,4.8331303 10.607295,6.1531596 9.6993629,7.2191653 8.4474044,7.7151472 7.9226736,7.9230269 7.3663146,8.0092412 6.7527406,7.9777549 Z"
     id="path3"
     transform="scale(32)" />
  <path
     style="fill:#4d4d4d;stroke-width:0.0194884"
     d="m 16.331303,10.468168 c -0.228838,-0.05931 -0.401196,-0.202443 -0.5033,-0.417971 l -0.06186,-0.1305868 -0.0058,-1.0864799 -0.0058,-1.0864799 H 14.72669 c -1.095958,0 -1.14444,-0.0036 -1.330845,-0.098692 C 13.275773,7.5867024 13.14898,7.4477368 13.080489,7.302328 13.026339,7.1873694 13.019029,7.1519175 13.019429,7.00609 c 3.4e-4,-0.1261891 0.01109,-0.1925074 0.04515,-0.278384 0.06253,-0.1576939 0.220576,-0.3236882 0.376947,-0.3958973 l 0.122426,-0.056535 1.095455,-0.00534 1.095454,-0.00534 0.0056,-1.08601 c 0.0056,-1.0845594 0.0057,-1.0861597 0.05087,-1.1980034 0.05981,-0.1481124 0.212275,-0.3127097 0.362314,-0.3911455 0.111401,-0.058237 0.131147,-0.062026 0.323277,-0.062026 0.184801,0 0.215425,0.0053 0.316055,0.054717 0.153378,0.075318 0.278212,0.2027093 0.352678,0.3599035 l 0.06208,0.1310551 0.0055,1.0956102 0.0055,1.0956101 1.105349,0.00549 1.10535,0.00549 0.112983,0.055446 c 0.144171,0.070751 0.287011,0.213593 0.357755,0.3577584 0.0497,0.1012834 0.05544,0.1331643 0.05545,0.3078675 3e-6,0.1703076 -0.0065,0.208832 -0.05184,0.3054841 -0.100201,0.2137483 -0.304429,0.3742125 -0.538637,0.4232136 -0.06801,0.014228 -0.452073,0.021607 -1.124692,0.021607 h -1.021418 l -0.0056,1.0962241 c -0.0056,1.0926266 -0.0058,1.0965389 -0.04986,1.1921136 -0.153274,0.33236 -0.520686,0.519108 -0.852246,0.43318 z"
     id="path4"
     transform="scale(32)" />
  <path
     style="fill:#4d4d4d;stroke-width:0.0194884"
     d="M 3.6443362,15.972526 C 0.79426344,15.961385 0.69882146,15.959839 0.61388551,15.923413 0.38460449,15.825082 0.22253003,15.671895 0.11291631,15.449915 l -0.07393945,-0.149736 6.0645e-4,-0.410138 c 6.569e-4,-0.444254 0.02383073,-0.641729 0.12592368,-1.073055 0.24381867,-1.030094 0.74097584,-1.920845 1.49036141,-2.670264 0.8724795,-0.872518 1.9380017,-1.3963076 3.2357272,-1.590618 0.2512928,-0.037627 3.833075,-0.03813 4.1607796,-5.853e-4 1.0335088,0.1184088 2.0230478,0.5308123 2.8453108,1.1858203 0.223751,0.178239 0.700527,0.656154 0.881402,0.883509 0.512644,0.644377 0.919806,1.511745 1.084076,2.309379 0.07129,0.346176 0.100295,0.640086 0.100295,1.016418 v 0.36156 l -0.07244,0.139269 c -0.08249,0.15858 -0.266238,0.356018 -0.390194,0.419256 -0.197202,0.100605 -0.05418,0.09643 -3.6038788,0.10516 -1.820421,0.0045 -4.634095,0.003 -6.252609,-0.0034 z"
     id="path5"
     transform="scale(32)" />
  <path
     style="fill:#4d4d4d;stroke-width:0.0194884"
     d="M 6.7137637,7.9677373 C 6.1045086,7.9093525 5.640007,7.7761058 5.1587485,7.5216668 4.7545027,7.3079441 4.4351937,7.0669843 4.1204275,6.7381194 3.5496776,6.1418052 3.1826943,5.3833838 3.0607002,4.548047 3.0208267,4.2750188 3.020801,3.7155245 3.0606494,3.4422088 3.1589525,2.7679593 3.4499962,2.0807729 3.8578899,1.5598364 4.0722338,1.2860897 4.491725,0.89445755 4.7625148,0.71528904 5.2963615,0.36206858 5.8493344,0.14680415 6.4506699,0.05811439 6.7359232,0.01604297 7.2596171,0.01606991 7.5420219,0.05817055 9.0707064,0.28606529 10.292825,1.3068584 10.775669,2.7591234 10.938346,3.2484139 10.994877,3.7023977 10.96185,4.2542973 10.940937,4.6037652 10.904438,4.8284402 10.825309,5.0948011 10.622659,5.7769466 10.28005,6.3445572 9.7705894,6.8421872 9.1012985,7.4959361 8.2816998,7.8754717 7.3568819,7.9599148 7.1462675,7.9791454 6.8681152,7.9825288 6.7137637,7.9677373 Z"
     id="path6"
     transform="scale(32)" />
  <g
     id="g7">
    <path
       style="fill:#4d4d4d;stroke-width:0.0194884"
       d="m 16.272838,10.441059 c -0.199601,-0.0717 -0.339417,-0.201707 -0.450045,-0.418487 -0.04673,-0.091565 -0.04691,-0.094399 -0.04696,-0.7308158 -2.5e-5,-0.3513916 -0.0058,-0.8427915 -0.01286,-1.0919998 l -0.01281,-0.453106 -0.761808,-0.00102 c -0.418994,-5.618e-4 -0.91418,-0.00836 -1.100412,-0.017333 -0.331259,-0.015957 -0.341389,-0.017732 -0.466966,-0.081804 -0.152202,-0.077657 -0.292607,-0.2376801 -0.355975,-0.405715 -0.05541,-0.146919 -0.04621,-0.3969384 0.01959,-0.5328696 0.06471,-0.1336742 0.215894,-0.2900934 0.346776,-0.3587854 l 0.113084,-0.059351 1.097871,-0.010519 c 0.603828,-0.00579 1.102024,-0.014673 1.107101,-0.01975 0.0051,-0.00508 0.01535,-0.5034838 0.02283,-1.1075699 l 0.0136,-1.0983386 0.04582,-0.093275 c 0.07089,-0.1443217 0.221879,-0.2965775 0.363011,-0.3660566 0.11806,-0.05812 0.132169,-0.060468 0.324905,-0.054063 0.167876,0.00558 0.217534,0.014823 0.297686,0.055417 0.128063,0.064859 0.260562,0.2000572 0.335264,0.3420927 l 0.06095,0.1158854 0.0095,1.0969942 c 0.0052,0.6033468 0.01414,1.1015927 0.01976,1.1072131 0.0056,0.00562 0.508807,0.015115 1.118191,0.021099 l 1.107971,0.01088 0.107187,0.0601 c 0.13397,0.075118 0.267755,0.2108292 0.331303,0.3360716 0.04358,0.085886 0.04872,0.1196786 0.04872,0.3201385 0,0.1981403 -0.0053,0.2341116 -0.04598,0.3103461 -0.06774,0.1270345 -0.238102,0.2877386 -0.367792,0.3469435 -0.105299,0.04807 -0.137704,0.052213 -0.511927,0.065457 -0.219732,0.00778 -0.713033,0.014966 -1.096224,0.015976 l -0.696712,0.00184 -0.0022,0.1510353 c -0.0012,0.083069 -0.0078,0.5855001 -0.01462,1.1165126 l -0.01238,0.9654772 -0.06821,0.1134425 c -0.08423,0.140081 -0.209974,0.254841 -0.350792,0.320138 -0.14259,0.06612 -0.374944,0.07863 -0.516443,0.0278 z"
       id="path7"
       transform="scale(32)" />
  </g>
</svg>
